# xmcd CD database file
#
# Track frame offsets:
#	150
#	7280
#	12740
#	17866
#	22850
#	27922
#	34242
#	37995
#	42774
#	48374
#	53836
#	58481
#	64383
#	74214
#	82978
#	91621
#	101537
#	106608
#	119089
#	126511
#	135362
#	146887
#	155871
#	164119
#	173182
#	182298
#	190411
#	194909
#	202248
#	207041
#	213449
#	220561
#	229389
#	233601
#
# Disc length: 3320 seconds
#
# Revision: 0
# Processed by: cddbd v1.5.2PL0 Copyright (c) Steve Scherf et al.
# Submitted via: CDex 1.70beta2
#
DISCID=030cf622
DTITLE=南澤　大介 - ソロ・ギターのしらべ　至上のジャズ・アレンジ篇
DYEAR=2002
DGENRE=Jazz
TTITLE0=IN THE MOOD
TTITLE1=WORK SONG
TTITLE2=TAKE FIVE
TTITLE3=MOANIN'
TTITLE4=ALL OF ME
TTITLE5=ON THE SUNNY SIDE OF THE STREET (明るい表通りで)
TTITLE6=I GOT RHYTHM
TTITLE7=TAKE THE "A" TRAIN
TTITLE8=THE DAYS OF WINE ANDE ROSE (酒とバラの日々)
TTITLE9=SATIN DOLL
TTITLE10=MY FAVORITE THEINGS
TTITLE11=NIGHT AND DAY
TTITLE12=SOMEONE TO WATCH OVER ME (誰かに見られてる)
TTITLE13=WAVE
TTITLE14=GAROTA DE IPANEMA (イパネマの娘)
TTITLE15=MONA LISA
TTITLE16=SOMEDAY MY PRINCE WILL COME (いつか王子様が)
TTITLE17=ROUND MIDNIGHT
TTITLE18=THE SHADOW OF YOUR SMILE (いそしぎ)
TTITLE19=AS TIME GOES BY (時のたつまま)
TTITLE20=MOONLIGHT SERENADE
TTITLE21=WHEN I FALL IN LOVE (恋に落ちた時)
TTITLE22=UNFORGETABLE
TTITLE23=THEME FROM LUPIN THE THIRD '78
TTITLE24=(JUST LIKE) STARTING OVER
TTITLE25=MY CHERIE AMOUR
TTITLE26=JINGLE BELLS
TTITLE27=MON BEAU SAPIN (もみの木)
TTITLE28=THEME OF 11PM
TTITLE29=SMOKEY
TTITLE30=SUPERSTITION (迷信)
TTITLE31=NOBODY KNOWS YOU WHEN YOU'RE DOWN and OUT
TTITLE32=MINOR SWING
TTITLE33=SPAIN
EXTD=YEAR: 2002
EXTT0=
EXTT1=
EXTT2=
EXTT3=
EXTT4=
EXTT5=
EXTT6=
EXTT7=
EXTT8=
EXTT9=
EXTT10=
EXTT11=
EXTT12=
EXTT13=
EXTT14=
EXTT15=
EXTT16=
EXTT17=
EXTT18=
EXTT19=
EXTT20=
EXTT21=
EXTT22=
EXTT23=
EXTT24=
EXTT25=
EXTT26=
EXTT27=
EXTT28=
EXTT29=
EXTT30=
EXTT31=
EXTT32=
EXTT33=
PLAYORDER=
